# xmcd
#
# Track frame offsets:
#	150
#	16440
#	34768
#	54648
#	73426
#	91860
#	106726
#	131611
#	153944
#	170353
#
# Disc length: 2502 seconds
#
# Revision: 0
# Processed by: cddbd v1.5.2PL0 Copyright (c) Steve Scherf et al.
# Submitted via: dBpowerAMP V4.0
#
DISCID=7e09c40a
DTITLE=1RKO - 1RKO
DYEAR=2007
DGENRE=
TTITLE0=Fox On The Run
TTITLE1=One More Time
TTITLE2=The Man
TTITLE3=So Alive
TTITLE4=Right Now
TTITLE5=The Outcome
TTITLE6=Hand In Hand
TTITLE7=Hell's Bells
TTITLE8=Black and White
TTITLE9=I Never Knew You
EXTD=
EXTT0=
EXTT1=
EXTT2=
EXTT3=
EXTT4=
EXTT5=
EXTT6=
EXTT7=
EXTT8=
EXTT9=
PLAYORDER=
